<svg width="24" height="23" viewBox="0 0 24 23" fill="none" xmlns="http://www.w3.org/2000/svg">
<path d="M14.8333 0.75H8.33333C2.91667 0.75 0.75 2.91667 0.75 8.33333V14.8333C0.75 18.9283 1.985 21.1708 4.93167 22.005C5.17 19.1883 8.0625 16.9675 11.5833 16.9675C15.1042 16.9675 17.9967 19.1883 18.235 22.005C21.1817 21.1708 22.4167 18.9283 22.4167 14.8333V8.33333C22.4167 2.91667 20.25 0.75 14.8333 0.75ZM11.5833 13.9341C9.43833 13.9341 7.705 12.19 7.705 10.045C7.705 7.90002 9.43833 6.16667 11.5833 6.16667C13.7283 6.16667 15.4617 7.90002 15.4617 10.045C15.4617 12.19 13.7283 13.9341 11.5833 13.9341Z" stroke="white" stroke-width="1.5" stroke-linecap="round" stroke-linejoin="round"/>
</svg>
