<svg width="25" height="25" viewBox="0 0 25 25" fill="none" xmlns="http://www.w3.org/2000/svg">
<g clip-path="url(#clip0_3733_137)">
<path d="M15.1764 -5.17236H14.8356L-4.43066 14.0939H-4.10989L15.1764 -5.17236Z" fill="#0084B5"/>
<path d="M16.1388 -4.65112H15.798L-3.46826 14.6151H-3.14749L16.1388 -4.65112Z" fill="#0084B5"/>
<path d="M17.0809 -4.12988H16.7601L-2.5061 15.1364H-2.18533L17.0809 -4.12988Z" fill="#0084B5"/>
<path d="M18.0433 -3.60864H17.7225L-1.5437 15.6576H-1.22293L18.0433 -3.60864Z" fill="#0084B5"/>
<path d="M19.0055 -3.0874H18.6847L-0.581543 16.1788H-0.260773L19.0055 -3.0874Z" fill="#0084B5"/>
<path d="M19.9679 -2.56616H19.6471L0.36084 16.7001H0.701658L19.9679 -2.56616Z" fill="#0084B5"/>
<path d="M19.567 -0.62146H19.2462L-0.0400391 18.6648H0.300779L19.567 -0.62146Z" fill="#0084B5"/>
<path d="M19.1659 1.34326H18.8451L-0.441162 20.6295H-0.100344L19.1659 1.34326Z" fill="#0084B5"/>
<path d="M20.3888 1.58386H20.068L0.781738 20.8701H1.12256L20.3888 1.58386Z" fill="#0084B5"/>
<path d="M21.6119 1.82446H21.2711L2.00488 21.0907H2.32565L21.6119 1.82446Z" fill="#0084B5"/>
<path d="M22.8348 2.06506H22.494L3.22778 21.3313H3.54855L22.8348 2.06506Z" fill="#0084B5"/>
<path d="M22.6141 3.82922H22.2733L3.00708 23.1155H3.32785L22.6141 3.82922Z" fill="#0084B5"/>
<path d="M23.1957 4.81165H22.8549L3.58862 24.0779H3.90939L23.1957 4.81165Z" fill="#0084B5"/>
<path d="M23.797 5.65356H23.4762L4.20996 24.9198H4.53073L23.797 5.65356Z" fill="#0084B5"/>
<path d="M24.7794 6.17493H24.4386L5.17236 25.4612H5.49313L24.7794 6.17493Z" fill="#0084B5"/>
<path d="M25.3207 7.19727H24.9799L5.71362 26.4836H6.03439L25.3207 7.19727Z" fill="#0084B5"/>
<path d="M25.3207 8.62073H24.9799L5.71362 27.907H6.03439L25.3207 8.62073Z" fill="#0084B5"/>
<path d="M27.3456 8.13953H27.0048L7.73853 27.4258H8.07934L27.3456 8.13953Z" fill="#0084B5"/>
<path d="M27.3456 9.56299H27.0048L7.73853 28.8292H8.07934L27.3456 9.56299Z" fill="#0084B5"/>
<path d="M27.526 10.9865H27.1852L7.91895 30.2527H8.23971L27.526 10.9865Z" fill="#0084B5"/>
<path d="M26.8844 13.0514H26.5636L7.29736 32.3176H7.61813L26.8844 13.0514Z" fill="#0084B5"/>
<path d="M12.51 0C5.59342 0 0 5.59342 0 12.51C0 19.4066 5.59342 25.02 12.51 25.02C19.4266 25.02 25.02 19.4266 25.02 12.51C25 5.59342 19.4066 0 12.51 0ZM12.51 24.158C6.07458 24.158 0.862069 18.9455 0.862069 12.51C0.862069 6.07458 6.07458 0.862069 12.51 0.862069C18.9455 0.862069 24.158 6.07458 24.158 12.51C24.158 18.9455 18.9455 24.158 12.51 24.158Z" fill="#0183B3"/>
<path d="M15.1764 -5.17236H14.8356L-4.43066 14.0939H-4.10989L15.1764 -5.17236Z" fill="#0084B5"/>
<path d="M16.1388 -4.65112H15.798L-3.46826 14.6151H-3.14749L16.1388 -4.65112Z" fill="#0084B5"/>
<path d="M17.0809 -4.12988H16.7601L-2.5061 15.1364H-2.18533L17.0809 -4.12988Z" fill="#0084B5"/>
<path d="M18.0433 -3.60864H17.7225L-1.5437 15.6576H-1.22293L18.0433 -3.60864Z" fill="#0084B5"/>
<path d="M19.0055 -3.0874H18.6847L-0.581543 16.1788H-0.260773L19.0055 -3.0874Z" fill="#0084B5"/>
<path d="M19.9679 -2.56616H19.6471L0.36084 16.7001H0.701658L19.9679 -2.56616Z" fill="#0084B5"/>
<path d="M19.567 -0.62146H19.2462L-0.0400391 18.6648H0.300779L19.567 -0.62146Z" fill="#0084B5"/>
<path d="M19.1659 1.34326H18.8451L-0.441162 20.6295H-0.100344L19.1659 1.34326Z" fill="#0084B5"/>
<path d="M20.3888 1.58386H20.068L0.781738 20.8701H1.12256L20.3888 1.58386Z" fill="#0084B5"/>
<path d="M21.6119 1.82446H21.2711L2.00488 21.0907H2.32565L21.6119 1.82446Z" fill="#0084B5"/>
<path d="M22.8348 2.06506H22.494L3.22778 21.3313H3.54855L22.8348 2.06506Z" fill="#0084B5"/>
<path d="M22.6141 3.82922H22.2733L3.00708 23.1155H3.32785L22.6141 3.82922Z" fill="#0084B5"/>
<path d="M23.1957 4.81165H22.8549L3.58862 24.0779H3.90939L23.1957 4.81165Z" fill="#0084B5"/>
<path d="M23.797 5.65356H23.4762L4.20996 24.9198H4.53073L23.797 5.65356Z" fill="#0084B5"/>
<path d="M24.7794 6.17493H24.4386L5.17236 25.4612H5.49313L24.7794 6.17493Z" fill="#0084B5"/>
<path d="M25.3207 7.19727H24.9799L5.71362 26.4836H6.03439L25.3207 7.19727Z" fill="#0084B5"/>
<path d="M25.3207 8.62073H24.9799L5.71362 27.907H6.03439L25.3207 8.62073Z" fill="#0084B5"/>
<path d="M27.3456 8.13953H27.0048L7.73853 27.4258H8.07934L27.3456 8.13953Z" fill="#0084B5"/>
<path d="M27.3456 9.56299H27.0048L7.73853 28.8292H8.07934L27.3456 9.56299Z" fill="#0084B5"/>
<path d="M27.526 10.9865H27.1852L7.91895 30.2527H8.23971L27.526 10.9865Z" fill="#0084B5"/>
<path d="M26.8844 13.0514H26.5636L7.29736 32.3176H7.61813L26.8844 13.0514Z" fill="#0084B5"/>
<path d="M2.52599 19.547L1.42334 17.2013L4.02959 8.88138C4.02959 8.88138 5.5332 5.79397 7.39768 4.85171C9.26215 3.90944 11.3873 3.10752 11.5075 0.641602H13.7529C13.7529 0.641602 14.4346 3.66887 17.522 4.59108C17.522 4.59108 20.9903 6.45555 21.5316 9.96397L23.6367 16.9608L21.7722 20.0281L18.2437 12.8108L17.7425 13.7731L17.6423 18.304L17.963 23.1957C17.963 23.1957 11.9686 26.4235 7.41773 23.1155L7.6583 18.3641L7.17715 14.9359V13.0113L6.31508 14.6151L3.46825 20.3088L2.52599 19.547Z" fill="white"/>
<path d="M1.30316 16.3794L3.78912 8.44032C3.78912 8.44032 4.87172 5.61353 7.83884 4.12997C10.806 2.64641 10.6857 1.6841 10.9263 0.641602H11.8084C11.8084 0.641602 11.9688 2.68651 9.10188 4.3505C9.10188 4.3505 5.33283 6.07464 4.571 8.70094L1.84446 17.6825C1.84446 17.6825 0.842051 17.4018 1.30316 16.3794Z" fill="#0084B5"/>
<path d="M23.8975 16.3794L21.4115 8.44032C21.4115 8.44032 20.3289 5.61353 17.3618 4.12997C14.3947 2.64641 14.4949 1.6841 14.2744 0.641602H13.3922C13.3922 0.641602 13.2319 2.68651 16.0987 4.3505C16.0987 4.3505 19.8678 6.07464 20.6296 8.70094L23.3562 17.6825C23.3562 17.6825 24.3586 17.4018 23.8975 16.3794Z" fill="#0084B5"/>
<path d="M18.705 10.3048C18.705 10.3048 17.7026 17.8629 18.3441 22.9351L17.5221 23.1957C17.5221 23.1957 16.6601 16.239 17.9432 10.1644L18.705 10.3048Z" fill="#0084B5"/>
<path d="M18.2638 12.2294L22.0529 19.6672L21.4314 20.409L18.0232 13.7129L18.2638 12.2294Z" fill="#0084B5"/>
<path d="M6.49561 10.3048C6.49561 10.3048 7.49801 17.8629 6.85647 22.9351L7.67844 23.1957C7.67844 23.1957 8.54051 16.239 7.25743 10.1644L6.49561 10.3048Z" fill="#0084B5"/>
<path d="M6.9368 12.2294L3.14771 19.6672L3.7692 20.409L7.17738 13.7129L6.9368 12.2294Z" fill="#0084B5"/>
<path d="M12.49 22.6946C14.6601 22.6946 16.4194 20.9353 16.4194 18.7651C16.4194 16.595 14.6601 14.8357 12.49 14.8357C10.3198 14.8357 8.56055 16.595 8.56055 18.7651C8.56055 20.9353 10.3198 22.6946 12.49 22.6946Z" fill="#18ADEE"/>
<path d="M12.9109 21.5518H12.0688V23.1155H12.9109V21.5518Z" fill="#0084B5"/>
<path d="M12.9109 18.4243H12.0688V19.9881H12.9109V18.4243Z" fill="#0084B5"/>
<path d="M12.9109 15.2968H12.0688V16.8605H12.9109V15.2968Z" fill="#0084B5"/>
<path d="M12.9109 12.1493H12.0688V13.713H12.9109V12.1493Z" fill="#0084B5"/>
<path d="M12.9109 9.02173H12.0688V10.5855H12.9109V9.02173Z" fill="#0084B5"/>
<path d="M12.9109 5.89429H12.0688V7.45804H12.9109V5.89429Z" fill="#0084B5"/>
<path d="M12.9109 2.76672H12.0688V4.33048H12.9109V2.76672Z" fill="#0084B5"/>
<path d="M12.51 0C5.59342 0 0 5.59342 0 12.51C0 19.4066 5.59342 25.02 12.51 25.02C19.4266 25.02 25.02 19.4266 25.02 12.51C25 5.59342 19.4066 0 12.51 0ZM12.51 24.158C6.07458 24.158 0.862069 18.9455 0.862069 12.51C0.862069 6.07458 6.07458 0.862069 12.51 0.862069C18.9455 0.862069 24.158 6.07458 24.158 12.51C24.158 18.9455 18.9455 24.158 12.51 24.158Z" fill="#0183B3"/>
</g>
<defs>
<clipPath id="clip0_3733_137">
<rect width="25" height="25" fill="white"/>
</clipPath>
</defs>
</svg>
