<svg width="45" height="54" viewBox="0 0 45 54" fill="none" xmlns="http://www.w3.org/2000/svg">
<path d="M8.79729 19.2982C10.3557 14.4361 13.707 5.84613 19.5634 5.10389C20.3678 5.00381 20.3845 3.71948 19.5634 3.8279C12.9278 4.67022 9.34188 13.4103 7.56567 18.9562C7.31432 19.7402 8.55431 20.0821 8.79729 19.2982Z" fill="#4D4D4C"/>
<path d="M10.9587 20.3491L11.2687 18.556L4.54932 18.506V50.6141H41.414V18.506L35.0464 18.556L35.3313 20.3491H39.6294V48.5959H6.50985V20.3824L10.9587 20.3491Z" fill="#019CDD"/>
<path d="M18.6836 31.1991C18.6836 31.1991 12.6596 31.9914 11.7213 28.6722C10.7829 25.3529 12.1402 6.86368 20.5688 6.02136" stroke="#019CDD" stroke-width="1.5079" stroke-miterlimit="10"/>
<path d="M27.5897 31.1991C27.5897 31.1991 33.6137 31.9914 34.5521 28.6722C35.4905 25.3529 34.1332 6.86368 25.7046 6.02136" stroke="#019CDD" stroke-width="1.5079" stroke-miterlimit="10"/>
<path d="M23.0571 8.80685C24.7183 8.80685 26.065 7.42906 26.065 5.72947C26.065 4.02989 24.7183 2.6521 23.0571 2.6521C21.396 2.6521 20.0493 4.02989 20.0493 5.72947C20.0493 7.42906 21.396 8.80685 23.0571 8.80685Z" fill="#019CDD" stroke="#019CDD" stroke-miterlimit="10"/>
<path d="M18.8931 33.0672C20.1055 33.0672 21.0882 32.0628 21.0882 30.8238C21.0882 29.5848 20.1055 28.5804 18.8931 28.5804C17.6808 28.5804 16.698 29.5848 16.698 30.8238C16.698 32.0628 17.6808 33.0672 18.8931 33.0672Z" fill="#019CDD" stroke="#019CDD" stroke-miterlimit="10"/>
<path d="M27.2715 33.0672C28.4839 33.0672 29.4667 32.0628 29.4667 30.8238C29.4667 29.5848 28.4839 28.5804 27.2715 28.5804C26.0592 28.5804 25.0764 29.5848 25.0764 30.8238C25.0764 32.0628 26.0592 33.0672 27.2715 33.0672Z" fill="#019CDD" stroke="#019CDD" stroke-miterlimit="10"/>
<path d="M14.4694 39.4554C15.4087 39.4554 16.1702 38.6974 16.1702 37.7624C16.1702 36.8274 15.4087 36.0695 14.4694 36.0695C13.53 36.0695 12.7686 36.8274 12.7686 37.7624C12.7686 38.6974 13.53 39.4554 14.4694 39.4554Z" stroke="#4D4D4C" stroke-width="1.1607" stroke-miterlimit="10"/>
<path d="M13.8912 39.4888C13.355 43.692 7.44831 45.9688 4.74211 42.291C3.19212 40.181 3.52726 37.4205 4.53265 35.0604C4.62482 34.8435 4.55779 32.9254 4.55779 32.4C4.55779 32.3249 4.3986 32.5501 4.35671 32.6252C2.39618 36.2113 1.13105 41.6655 5.13589 44.3842C8.90614 46.9362 14.528 44.3175 15.0977 39.789C15.215 38.9884 13.9918 38.6882 13.8912 39.4888Z" fill="#4D4D4C"/>
<path d="M13.1037 18.531H33.2117L33.5301 20.3241H12.7686L13.1037 18.531Z" fill="#019CDD"/>
</svg>
