<svg width="18" height="18" viewBox="0 0 18 18" fill="none" xmlns="http://www.w3.org/2000/svg">
<path d="M1.73864 3.16303C0.676335 4.22533 0.193006 5.87302 1.10951 7.30718C1.86683 8.49225 3.19624 10.2192 5.52566 12.5487C7.85508 14.8781 9.58206 16.2075 10.7671 16.9648C12.2013 17.8813 13.849 17.398 14.9113 16.3357L16.044 15.203C16.9226 14.3243 16.9226 12.8997 16.044 12.021L14.5584 10.5354C13.897 9.87407 12.8743 9.73839 12.0634 10.2045C11.5815 10.4814 10.9739 10.4008 10.5809 10.0078L8.06651 7.4934C7.67355 7.10044 7.59294 6.49278 7.86986 6.01096C8.33592 5.20002 8.20024 4.17729 7.53887 3.51592L6.0533 2.03035C5.17462 1.15167 3.74999 1.15167 2.87132 2.03035L1.73864 3.16303ZM2.37346 6.49945C1.93842 5.8187 2.08685 4.93613 2.7993 4.22369L3.93198 3.09101C4.22487 2.79811 4.69974 2.79811 4.99264 3.09101L6.47821 4.57658C6.6603 4.75867 6.69766 5.04025 6.56934 5.26353C5.95468 6.33302 6.13361 7.68182 7.00585 8.55406L9.52025 11.0685C10.3925 11.9407 11.7413 12.1196 12.8108 11.505C13.0341 11.3767 13.3156 11.414 13.4977 11.5961L14.9833 13.0817C15.2762 13.3746 15.2762 13.8494 14.9833 14.1423L13.8506 15.275C13.1382 15.9875 12.2556 16.1359 11.5749 15.7009C10.5012 15.0147 8.85782 13.7595 6.58632 11.488C4.31482 9.21649 3.0596 7.57315 2.37346 6.49945ZM10.5 2.25005C10.5 1.83583 10.8358 1.50005 11.25 1.50005C14.1495 1.50005 16.5 3.85055 16.5 6.75005C16.5 7.16426 16.1642 7.50005 15.75 7.50005C15.3358 7.50005 15 7.16426 15 6.75005C15 4.67898 13.3211 3.00005 11.25 3.00005C10.8358 3.00005 10.5 2.66426 10.5 2.25005ZM10.5 5.25005C10.5 4.83583 10.8358 4.50005 11.25 4.50005C12.4926 4.50005 13.5 5.50741 13.5 6.75005C13.5 7.16426 13.1642 7.50005 12.75 7.50005C12.3358 7.50005 12 7.16426 12 6.75005C12 6.33583 11.6642 6.00005 11.25 6.00005C10.8358 6.00005 10.5 5.66426 10.5 5.25005Z" fill="#019CDD"/>
</svg>
