<svg width="29" height="26" viewBox="0 0 29 26" fill="none" xmlns="http://www.w3.org/2000/svg">
<path d="M20.3125 8.39587H0.8125C0.368333 8.39587 0 8.02754 0 7.58337C0 7.13921 0.368333 6.77087 0.8125 6.77087H20.3125C20.7567 6.77087 21.125 7.13921 21.125 7.58337C21.125 8.02754 20.7567 8.39587 20.3125 8.39587Z" fill="white"/>
<path d="M20.3125 13.8125H0.8125C0.368333 13.8125 0 13.4442 0 13C0 12.5558 0.368333 12.1875 0.8125 12.1875H20.3125C20.7567 12.1875 21.125 12.5558 21.125 13C21.125 13.4442 20.7567 13.8125 20.3125 13.8125Z" fill="white"/>
<path d="M20.3125 19.2291H0.8125C0.368333 19.2291 0 18.8608 0 18.4166C0 17.9725 0.368333 17.6041 0.8125 17.6041H20.3125C20.7567 17.6041 21.125 17.9725 21.125 18.4166C21.125 18.8608 20.7567 19.2291 20.3125 19.2291Z" fill="white"/>
</svg>
