<svg width="22" height="23" viewBox="0 0 22 23" fill="none" xmlns="http://www.w3.org/2000/svg">
<path d="M10.2978 0.00867844C8.48943 0.126968 6.59061 0.782633 5.09031 1.80669C3.50629 2.8882 2.25045 4.34823 1.43667 6.05161C0.991271 6.98441 0.713313 7.86313 0.522426 8.94464C0.378424 9.75577 0.348284 10.9792 0.448751 11.9188C0.582706 13.1828 1.0415 14.6969 1.66105 15.9339L1.83854 16.282L1.42663 17.5224C1.1989 18.2051 0.786989 19.4488 0.509031 20.287C0.227724 21.1285 0 21.8382 0 21.872C0 21.9025 0.0435355 21.9464 0.0971177 21.9667C0.184189 22.0005 0.194235 22.014 0.177491 22.1188C0.157398 22.2269 0.160747 22.2337 0.237771 22.21C0.375075 22.1661 3.37233 21.2029 4.63821 20.7905C5.30129 20.5776 5.8706 20.4019 5.90409 20.4019C5.93423 20.4019 6.07823 20.4593 6.22223 20.5337C7.44793 21.1555 8.75399 21.5273 10.1438 21.6557C10.693 21.7031 11.8115 21.6794 12.3507 21.6017C15.5455 21.1555 18.2648 19.3744 19.9393 16.6402C20.4851 15.748 21.0042 14.5043 21.2822 13.4228C21.5467 12.3852 21.674 11.0975 21.6037 10.1039C21.4228 7.46433 20.4115 5.12556 18.6533 3.287C16.9487 1.50589 14.7786 0.404106 12.3072 0.0695133C11.9455 0.0221977 10.693 -0.0183582 10.2978 0.00867844ZM11.6072 2.3204C12.8028 2.41842 13.784 2.68541 14.8188 3.19575C16.222 3.89197 17.3975 4.93292 18.2682 6.25777C18.938 7.27506 19.3499 8.37009 19.5106 9.56651C19.5876 10.1343 19.5876 11.2834 19.5106 11.8647C18.9648 15.9508 15.6226 19.1007 11.5671 19.3575C10.1371 19.4454 8.80757 19.2088 7.50821 18.6343C7.14988 18.4754 6.55712 18.151 6.37293 18.0158C6.316 17.9719 6.24233 17.9347 6.20884 17.9347C6.1787 17.9347 5.46538 18.1544 4.62816 18.4247C3.79094 18.6951 3.10107 18.9148 3.09772 18.908C3.09102 18.9013 3.30535 18.2422 3.56991 17.4446C3.83448 16.6436 4.05215 15.9508 4.05215 15.8967C4.05215 15.8426 3.99187 15.7176 3.9048 15.5925C2.50497 13.5681 2.04952 10.7731 2.72934 8.40389C2.88004 7.89017 3.00395 7.57586 3.24842 7.0858C3.9182 5.76433 4.93961 4.61185 6.19544 3.76692C7.77947 2.69893 9.75866 2.1717 11.6072 2.3204Z" fill="#4BC796"/>
<path d="M6.78406 5.32115C6.70704 5.3448 6.59653 5.39888 6.5329 5.43605C6.3621 5.5442 5.86647 6.07816 5.71242 6.32149C5.22013 7.0954 5.10962 8.12616 5.40432 9.13326C5.6287 9.89365 5.90331 10.4749 6.40564 11.259C7.04193 12.2458 7.45384 12.7798 8.11357 13.4658C9.10484 14.4966 9.93871 15.0745 11.218 15.6118C12.1624 16.0106 12.8589 16.237 13.2508 16.2776C13.522 16.3046 14.1148 16.21 14.4631 16.0816C14.9453 15.9058 15.4979 15.5138 15.7122 15.1961C15.9265 14.8717 16.1475 14.1383 16.1743 13.6517L16.1944 13.3306L16.0906 13.209C16.0169 13.1279 15.7155 12.9454 15.106 12.6142C13.6593 11.8301 13.4751 11.7558 13.2474 11.8774C13.1905 11.9045 12.9762 12.1241 12.7752 12.3607C12.1791 13.0603 12.0552 13.1819 11.9547 13.1819C11.8275 13.1819 10.9936 12.7527 10.6051 12.4891C10.153 12.1782 9.85834 11.9281 9.48661 11.5395C9.04456 11.0765 8.56567 10.4141 8.29776 9.89703L8.23748 9.77537L8.4786 9.50839C8.79674 9.16705 8.92735 8.9609 9.05461 8.60267C9.18521 8.23768 9.17852 8.12616 8.98763 7.62261C8.81684 7.17313 8.67953 6.80138 8.44176 6.15589C8.24753 5.6253 8.10352 5.40901 7.90259 5.3448C7.7117 5.28735 6.94146 5.27045 6.78406 5.32115Z" fill="#4BC796"/>
</svg>
